<svg width="512" height="512" viewBox="0 0 512 512" xmlns="http://www.w3.org/2000/svg">
  <defs><linearGradient id="g" x1="0" y1="0" x2="1" y2="1"><stop stop-color="#ff4aa2"/><stop offset="1" stop-color="#5b35e5"/></linearGradient></defs>
  <rect width="512" height="512" rx="120" fill="url(#g)"/>
  <circle cx="256" cy="234" r="112" fill="#ffd8c8"/>
  <path d="M148 223c10-86 79-132 150-111 53 16 72 62 68 111-43-38-77-12-116-52-21 38-55 40-102 52z" fill="#8a3f24"/>
  <circle cx="218" cy="244" r="12" fill="#211640"/><circle cx="294" cy="244" r="12" fill="#211640"/>
  <path d="M226 291c24 19 58 19 82 0" stroke="#8e2457" stroke-width="14" stroke-linecap="round" fill="none"/>
  <path d="M214 93c-50-41-101 13-59 53 23 21 59 7 59-53zM298 93c50-41 101 13 59 53-23 21-59 7-59-53z" fill="#ff5aa8"/>
  <path d="M256 324l28 58 64 9-46 45 11 63-57-30-57 30 11-63-46-45 64-9z" fill="#ffd23f" stroke="#fff" stroke-width="8"/>
</svg>
