<svg width="192" height="192" viewBox="0 0 192 192" fill="none" xmlns="http://www.w3.org/2000/svg"><rect width="192" height="192" rx="48" fill="url(#g)"/><circle cx="96" cy="99" r="54" fill="#FFE2D2"/><path d="M50 91c5-44 29-62 69-51 20 6 30 24 27 55-25-16-55-19-96-4z" fill="#7A3B1D"/><circle cx="77" cy="105" r="7" fill="#22113B"/><circle cx="116" cy="105" r="7" fill="#22113B"/><path d="M80 129c12 10 26 10 38 0" stroke="#A32662" stroke-width="8" stroke-linecap="round"/><path d="M82 42c-21-22-43-3-27 18 20 3 30-4 27-18zM109 42c21-22 43-3 27 18-20 3-30-4-27-18z" fill="#FF4FA3"/><circle cx="96" cy="50" r="13" fill="#FF4FA3"/><path d="M96 28l8 17 19 3-14 13 3 19-16-9-16 9 3-19-14-13 19-3 8-17z" fill="#FFD84D"/><defs><linearGradient id="g" x1="0" x2="192" y1="0" y2="192"><stop stop-color="#3B1285"/><stop offset="1" stop-color="#FF4FA3"/></linearGradient></defs></svg>
