<svg xmlns="http://www.w3.org/2000/svg" viewBox="0 0 512 512">
  <defs><linearGradient id="g" x1="0" x2="1" y1="0" y2="1"><stop stop-color="#7c3aed"/><stop offset="1" stop-color="#ec4899"/></linearGradient></defs>
  <rect width="512" height="512" rx="120" fill="url(#g)"/>
  <circle cx="256" cy="244" r="138" fill="#ffd6e7"/>
  <circle cx="205" cy="230" r="18" fill="#2f1b5b"/><circle cx="307" cy="230" r="18" fill="#2f1b5b"/>
  <path d="M215 296q41 34 82 0" fill="none" stroke="#2f1b5b" stroke-width="18" stroke-linecap="round"/>
  <path d="M167 150q95-88 178 0q-34-22-89-22t-89 22z" fill="#7c2d12"/>
  <path d="M185 94l55 42l-70 30z" fill="#f472b6"/><path d="M327 94l-55 42l70 30z" fill="#f472b6"/>
  <path d="M256 45l26 72h76l-61 45l23 73l-64-44l-64 44l23-73l-61-45h76z" fill="#facc15" opacity=".95"/>
</svg>
